<mxfile host="65bd71144e">
    <diagram id="UCqd43ohcCnEwV5cNruf" name="Page-1">
        <mxGraphModel dx="1081" dy="1296" grid="1" gridSize="10" guides="1" tooltips="1" connect="1" arrows="1" fold="1" page="1" pageScale="1" pageWidth="900" pageHeight="1600" math="0" shadow="0">
            <root>
                <mxCell id="0"/>
                <mxCell id="1" parent="0"/>
                <mxCell id="2" value="" style="dashed=0;shape=rect;fillColor=#ffffff;strokeColor=none;" vertex="1" parent="1">
                    <mxGeometry x="220" y="250" width="358" height="642" as="geometry"/>
                </mxCell>
                <mxCell id="3" value="12:30" style="dashed=0;shape=rect;align=right;fillColor=#00796B;strokeColor=none;fontColor=#FFFFFF;spacingRight=4;spacingTop=1;fontStyle=0;fontSize=13;resizeWidth=1;whiteSpace=wrap;html=1;" vertex="1" parent="2">
                    <mxGeometry width="358" height="24" relative="1" as="geometry"/>
                </mxCell>
                <mxCell id="4" value="" style="dashed=0;shape=mxgraph.gmdl.top_bar;fillColor=#2D3986;strokeColor=none;" vertex="1" parent="3">
                    <mxGeometry x="1" y="0.5" width="46" height="14" relative="1" as="geometry">
                        <mxPoint x="-92" y="-7" as="offset"/>
                    </mxGeometry>
                </mxCell>
                <mxCell id="5" value="Feed reader" style="dashed=0;shape=rect;strokeColor=none;fillColor=#009688;resizeWidth=1;fontSize=20;fontColor=#FFFFFF;spacingTop=-3;verticalAlign=middle;align=left;spacingLeft=72;whiteSpace=wrap;html=1;" vertex="1" parent="2">
                    <mxGeometry width="358" height="57" relative="1" as="geometry">
                        <mxPoint y="24" as="offset"/>
                    </mxGeometry>
                </mxCell>
                <mxCell id="6" value="" style="dashed=0;shape=mxgraph.gmdl.preferences;strokeColor=none;fillColor=#00423B;" vertex="1" parent="5">
                    <mxGeometry y="0.5" width="24" height="16" relative="1" as="geometry">
                        <mxPoint x="16" y="-8" as="offset"/>
                    </mxGeometry>
                </mxCell>
                <mxCell id="7" value="" style="dashed=0;shape=mxgraph.gmdl.refresh;strokeColor=#00423B;fillColor=#00423B;strokeWidth=2;" vertex="1" parent="5">
                    <mxGeometry x="1" y="0.5" width="16" height="16" relative="1" as="geometry">
                        <mxPoint x="-65" y="-8" as="offset"/>
                    </mxGeometry>
                </mxCell>
                <mxCell id="8" value="" style="dashed=0;shape=mxgraph.gmdl.settings;strokeColor=none;fillColor=#00423B;" vertex="1" parent="5">
                    <mxGeometry x="1" y="0.5" width="5" height="16" relative="1" as="geometry">
                        <mxPoint x="-24" y="-8" as="offset"/>
                    </mxGeometry>
                </mxCell>
                <mxCell id="9" value="" style="shape=rect;fillColor=#ffffff;strokeColor=#eeeeee;shadow=0;resizeWidth=1;whiteSpace=wrap;html=1;" vertex="1" parent="2">
                    <mxGeometry width="358" height="103" relative="1" as="geometry">
                        <mxPoint y="81" as="offset"/>
                    </mxGeometry>
                </mxCell>
                <mxCell id="10" value="Day reappeared. The tempest still raged with undiminished" style="text;whiteSpace=wrap;fontColor=#000000;verticalAlign=top;align=left;fontSize=15;spacing=16;spacingBottom=0;spacingTop=-12;resizeWidth=1;" vertex="1" parent="9">
                    <mxGeometry width="244" height="60" relative="1" as="geometry"/>
                </mxCell>
                <mxCell id="11" value="Corned beef prosciutto ground..." style="text;whiteSpace=wrap;spacingLeft=16;spacingRight=16;spacing=0;fontSize=13;fontColor=#000000;spacingBottom=0;spacingTop=-5;resizeWidth=1;" vertex="1" parent="9">
                    <mxGeometry width="244" height="20" relative="1" as="geometry">
                        <mxPoint y="48" as="offset"/>
                    </mxGeometry>
                </mxCell>
                <mxCell id="12" value="10 min" style="text;whiteSpace=wrap;spacingLeft=16;spacingRight=16;spacing=0;fontSize=12;fontColor=#999999;spacingBottom=0;spacingTop=-5;resizeWidth=1;html=1;" vertex="1" parent="9">
                    <mxGeometry width="244" height="20" relative="1" as="geometry">
                        <mxPoint y="72" as="offset"/>
                    </mxGeometry>
                </mxCell>
                <mxCell id="13" value="" style="dashed=0;shape=mxgraph.gmdl.marginRect;rectMargin=12;rectMarginLeft=-12;fillColor=#BDBDBD;strokeColor=none;" vertex="1" parent="9">
                    <mxGeometry x="244" width="112" height="103" as="geometry"/>
                </mxCell>
                <mxCell id="14" value="" style="shape=rect;fillColor=#ffffff;strokeColor=#eeeeee;shadow=0;resizeWidth=1;whiteSpace=wrap;html=1;" vertex="1" parent="2">
                    <mxGeometry width="358" height="103" relative="1" as="geometry">
                        <mxPoint y="184" as="offset"/>
                    </mxGeometry>
                </mxCell>
                <mxCell id="15" value="There were some signs of a calm at noon" style="text;whiteSpace=wrap;fontColor=#000000;verticalAlign=top;align=left;fontSize=15;spacing=16;spacingBottom=0;spacingTop=-12;resizeWidth=1;" vertex="1" parent="14">
                    <mxGeometry width="244" height="60" relative="1" as="geometry"/>
                </mxCell>
                <mxCell id="16" value="Things to enjoy" style="text;whiteSpace=wrap;spacingLeft=16;spacingRight=16;spacing=0;fontSize=13;fontColor=#000000;spacingBottom=0;spacingTop=-5;resizeWidth=1;html=1;" vertex="1" parent="14">
                    <mxGeometry width="244" height="20" relative="1" as="geometry">
                        <mxPoint y="48" as="offset"/>
                    </mxGeometry>
                </mxCell>
                <mxCell id="17" value="1 hr" style="text;whiteSpace=wrap;spacingLeft=16;spacingRight=16;spacing=0;fontSize=12;fontColor=#999999;spacingBottom=0;spacingTop=-5;resizeWidth=1;html=1;" vertex="1" parent="14">
                    <mxGeometry width="244" height="20" relative="1" as="geometry">
                        <mxPoint y="72" as="offset"/>
                    </mxGeometry>
                </mxCell>
                <mxCell id="18" value="" style="dashed=0;shape=mxgraph.gmdl.marginRect;rectMargin=12;rectMarginLeft=-12;fillColor=#BDBDBD;strokeColor=none;" vertex="1" parent="14">
                    <mxGeometry x="244" width="112" height="103" as="geometry"/>
                </mxCell>
                <mxCell id="19" value="" style="shape=rect;fillColor=#ffffff;strokeColor=#eeeeee;shadow=0;resizeWidth=1;whiteSpace=wrap;html=1;" vertex="1" parent="2">
                    <mxGeometry width="358" height="103" relative="1" as="geometry">
                        <mxPoint y="287" as="offset"/>
                    </mxGeometry>
                </mxCell>
                <mxCell id="20" value="Fun tropical escapes" style="text;whiteSpace=wrap;fontColor=#000000;verticalAlign=top;align=left;fontSize=15;spacing=16;spacingBottom=0;spacingTop=-12;resizeWidth=1;" vertex="1" parent="19">
                    <mxGeometry width="244" height="60" relative="1" as="geometry"/>
                </mxCell>
                <mxCell id="21" value="The night was comparatively quiet. Some of the sails were again." style="text;whiteSpace=wrap;spacingLeft=16;spacingRight=16;spacing=0;fontSize=13;fontColor=#000000;spacingBottom=0;spacingTop=-5;resizeWidth=1;html=1;" vertex="1" parent="19">
                    <mxGeometry width="244" height="20" relative="1" as="geometry">
                        <mxPoint y="30" as="offset"/>
                    </mxGeometry>
                </mxCell>
                <mxCell id="22" value="1 hr" style="text;whiteSpace=wrap;spacingLeft=16;spacingRight=16;spacing=0;fontSize=12;fontColor=#999999;spacingBottom=0;spacingTop=-5;resizeWidth=1;html=1;" vertex="1" parent="19">
                    <mxGeometry width="244" height="20" relative="1" as="geometry">
                        <mxPoint y="72" as="offset"/>
                    </mxGeometry>
                </mxCell>
                <mxCell id="23" value="" style="dashed=0;shape=mxgraph.gmdl.marginRect;rectMargin=12;rectMarginLeft=-12;fillColor=#BDBDBD;strokeColor=none;" vertex="1" parent="19">
                    <mxGeometry x="244" width="112" height="103" as="geometry"/>
                </mxCell>
                <mxCell id="24" value="" style="shape=rect;fillColor=#ffffff;strokeColor=#eeeeee;shadow=0;resizeWidth=1;whiteSpace=wrap;html=1;" vertex="1" parent="2">
                    <mxGeometry width="358" height="103" relative="1" as="geometry">
                        <mxPoint y="390" as="offset"/>
                    </mxGeometry>
                </mxCell>
                <mxCell id="25" value="Pork loin sausage shankle, kielbasa bacon beef ribs" style="text;whiteSpace=wrap;fontColor=#000000;verticalAlign=top;align=left;fontSize=15;spacing=16;spacingBottom=0;spacingTop=-12;resizeWidth=1;" vertex="1" parent="24">
                    <mxGeometry width="244" height="60" relative="1" as="geometry"/>
                </mxCell>
                <mxCell id="26" value="Drumstick turkey shoulder square..." style="text;whiteSpace=wrap;spacingLeft=16;spacingRight=16;spacing=0;fontSize=13;fontColor=#000000;spacingBottom=0;spacingTop=-5;resizeWidth=1;html=1;" vertex="1" parent="24">
                    <mxGeometry width="244" height="20" relative="1" as="geometry">
                        <mxPoint y="48" as="offset"/>
                    </mxGeometry>
                </mxCell>
                <mxCell id="27" value="2 hr" style="text;whiteSpace=wrap;spacingLeft=16;spacingRight=16;spacing=0;fontSize=12;fontColor=#999999;spacingBottom=0;spacingTop=-5;resizeWidth=1;html=1;" vertex="1" parent="24">
                    <mxGeometry width="244" height="20" relative="1" as="geometry">
                        <mxPoint y="72" as="offset"/>
                    </mxGeometry>
                </mxCell>
                <mxCell id="28" value="" style="dashed=0;shape=mxgraph.gmdl.marginRect;rectMargin=12;rectMarginLeft=-12;fillColor=#BDBDBD;strokeColor=none;" vertex="1" parent="24">
                    <mxGeometry x="244" width="112" height="103" as="geometry"/>
                </mxCell>
                <mxCell id="29" value="" style="shape=rect;fillColor=#ffffff;strokeColor=#eeeeee;shadow=0;resizeWidth=1;whiteSpace=wrap;html=1;" vertex="1" parent="2">
                    <mxGeometry width="358" height="101" relative="1" as="geometry">
                        <mxPoint y="493" as="offset"/>
                    </mxGeometry>
                </mxCell>
                <mxCell id="30" value="Cherry blossoms in bloom" style="text;whiteSpace=wrap;fontColor=#000000;verticalAlign=top;align=left;fontSize=15;spacing=16;spacingBottom=0;spacingTop=-12;resizeWidth=1;" vertex="1" parent="29">
                    <mxGeometry width="244" height="60" relative="1" as="geometry"/>
                </mxCell>
                <mxCell id="31" value="Spring is here and we all know..." style="text;whiteSpace=wrap;spacingLeft=16;spacingRight=16;spacing=0;fontSize=13;fontColor=#000000;spacingBottom=0;spacingTop=-5;resizeWidth=1;html=1;" vertex="1" parent="29">
                    <mxGeometry width="244" height="20" relative="1" as="geometry">
                        <mxPoint y="30" as="offset"/>
                    </mxGeometry>
                </mxCell>
                <mxCell id="32" value="3 hr" style="text;whiteSpace=wrap;spacingLeft=16;spacingRight=16;spacing=0;fontSize=12;fontColor=#999999;spacingBottom=0;spacingTop=-5;resizeWidth=1;html=1;" vertex="1" parent="29">
                    <mxGeometry width="244" height="20" relative="1" as="geometry">
                        <mxPoint y="72" as="offset"/>
                    </mxGeometry>
                </mxCell>
                <mxCell id="33" value="" style="dashed=0;shape=mxgraph.gmdl.marginRect;rectMargin=12;rectMarginLeft=-12;fillColor=#BDBDBD;strokeColor=none;" vertex="1" parent="29">
                    <mxGeometry x="244" width="112" height="103" as="geometry"/>
                </mxCell>
                <mxCell id="34" value="" style="dashed=0;shape=rect;strokeColor=none;fillColor=#000000;resizeWidth=1;" vertex="1" parent="2">
                    <mxGeometry y="1" width="358" height="48" relative="1" as="geometry">
                        <mxPoint y="-48" as="offset"/>
                    </mxGeometry>
                </mxCell>
                <mxCell id="35" value="" style="dashed=0;shape=mxgraph.gmdl.back;strokeColor=#ffffff;fillColor=#000000;strokeWidth=2;" vertex="1" parent="34">
                    <mxGeometry x="0.25" y="0.5" width="14" height="14" relative="1" as="geometry">
                        <mxPoint x="-7" y="-7" as="offset"/>
                    </mxGeometry>
                </mxCell>
                <mxCell id="36" value="" style="shape=ellipse;strokeColor=#ffffff;fillColor=#000000;strokeWidth=2;" vertex="1" parent="34">
                    <mxGeometry x="0.5" y="0.5" width="14" height="14" relative="1" as="geometry">
                        <mxPoint x="-7" y="-7" as="offset"/>
                    </mxGeometry>
                </mxCell>
                <mxCell id="37" value="" style="shape=rect;strokeColor=#ffffff;fillColor=#000000;strokeWidth=2;" vertex="1" parent="34">
                    <mxGeometry x="0.75" y="0.5" width="14" height="14" relative="1" as="geometry">
                        <mxPoint x="-7" y="-7" as="offset"/>
                    </mxGeometry>
                </mxCell>
            </root>
        </mxGraphModel>
    </diagram>
</mxfile>